# xmcd CD database file
#
# Track frame offsets:
#	150
#	15169
#	28681
#	44403
#	58873
#	74115
#	89141
#	103946
#	118794
#	131221
#	144398
#	160273
#
# Disc length: 2303 seconds
#
# Revision: 0
# Processed by: cddbd v1.5.2PL0 Copyright (c) Steve Scherf et al.
# Submitted via: CDex 1.50Beta7
#
DISCID=b508fd0c
DTITLE=Truck Stop - Willkommen in der Familie
DYEAR=2007
DGENRE=Country
TTITLE0=Das analoge Maedchen
TTITLE1=Sattel nicht gleich die Pferde
TTITLE2=Ich bin dein Mann
TTITLE3=Keine Zeit
TTITLE4=Einfache Cowboys
TTITLE5=Willkommen in der Familie
TTITLE6=All' das mag ich - dich brauch' ich
TTITLE7=Der Lack ist ab
TTITLE8=Männer
TTITLE9=Ich bin Cowboy
TTITLE10=Spuren deiner Liebe
TTITLE11=Country Music
EXTD=YEAR: 2007
EXTT0=
EXTT1=
EXTT2=
EXTT3=
EXTT4=
EXTT5=
EXTT6=
EXTT7=
EXTT8=
EXTT9=
EXTT10=
EXTT11=
PLAYORDER=
